<svg width="117.46" height="36" version="1.1" viewBox="0 0 117.46 36" xmlns="http://www.w3.org/2000/svg">
 <defs>
  <linearGradient id="a" x1="1" x2="0" y1=".5" y2=".5">
   <stop stop-color="#b73eea" offset="0"/>
   <stop stop-color="#6e5be4" offset=".515"/>
   <stop stop-color="#5e52cd" offset="1"/>
  </linearGradient>
 </defs>
 <path transform="translate(-2.998 -13.402)" d="M88.391,14.878A24.4,24.4,0,0,0,79.871,13.4c-9.4,0-16.032,4.733-16.079,11.53-.059,4.992,4.718,7.807,8.327,9.475,3.708,1.715,4.945,2.8,4.933,4.326-.023,2.333-2.96,3.387-5.693,3.387a20.109,20.109,0,0,1-8.954-1.832l-1.167-.548L59.9,47.562A32.13,32.13,0,0,0,70.557,49.4c9.987,0,16.522-4.706,16.6-11.933.082-3.986-2.5-7-7.94-9.49-3.3-1.617-5.356-2.7-5.356-4.334,0-1.449,1.758-3,5.426-3a17.324,17.324,0,0,1,7.125,1.347l.881.4,1.335-7.556-.227.051Zm24.383-.838h-7.341c-2.286,0-4.005.63-5,2.9L86.312,48.92H96.3l2-5.246,12.192.012c.29,1.229,1.167,5.235,1.167,5.235h8.809l-7.693-34.88Zm-62.5-.294h9.518l-5.955,34.9H44.334l5.943-34.907v.012ZM26.109,32.978l.987,4.843,9.3-23.784H46.479L31.5,48.865H21.442L13.22,19.373a1.993,1.993,0,0,0-.873-1.167A40.8,40.8,0,0,0,3,14.749l.129-.736h15.32c2.079.082,3.755.736,4.311,2.952L26.1,32.994v-.02Zm74.92,3.559,3.794-9.76c-.047.106.783-2.016,1.265-3.324l.654,3.015,2.2,10.066h-7.924v.008h.008Z" fill="url(#a)"/>
</svg>
