<svg width="35.968" height="35.956" version="1.1" viewBox="0 0 35.968 35.956" xmlns="http://www.w3.org/2000/svg">
 <defs>
  <linearGradient id="a" x1="1" x2="0" y1=".5" y2=".5">
   <stop stop-color="#b73eea" offset="0"/>
   <stop stop-color="#6e5be4" offset=".485"/>
   <stop stop-color="#5e52cd" offset="1"/>
  </linearGradient>
 </defs>
 <path transform="translate(-.016 -.022)" d="m21.729 18.391a3.545 3.545 0 10-3.545 3.529 3.541 3.541 0 003.545-3.529zm5.271-18.369h-17.995a8.979 8.979 0 00-8.989 8.949v2.494h13.227a8.538 8.538 0 019.882 0h12.858v-2.494a8.978 8.978 0 00-8.983-8.949zm3.64 8.512a1 1 0 01-1 .994h-3.09a1 1 0 01-1-.994v-3.073a1 1 0 011-.994h3.086a1 1 0 011 .994zm-3.913 9.857a8.538 8.538 0 01-17.076 0 8.419 8.419 0 01.811-3.611h-10.446v12.249a8.979 8.979 0 008.989 8.949h17.99a8.979 8.979 0 008.989-8.949v-12.25h-10.073a8.422 8.422 0 01.811 3.611z" fill="url(#a)"/>
</svg>
