<svg width="57.325" height="36" version="1.1" viewBox="0 0 57.325 36" xmlns="http://www.w3.org/2000/svg">
 <defs>
  <linearGradient id="a" x1=".5" x2=".5" y2="1">
   <stop stop-color="#b73eea" offset="0"/>
   <stop stop-color="#6e5be4" offset=".505"/>
   <stop stop-color="#5e52cd" offset="1"/>
  </linearGradient>
 </defs>
 <path transform="translate(0 -7.02)" d="m2.667 7.02a2.667 2.667 0 00-2.667 2.667v30.666a2.667 2.667 0 002.667 2.667h51.99a2.667 2.667 0 002.667-2.667v-30.666a2.667 2.667 0 00-2.666-2.667h-51.991zm16.133 4.333a13.719 13.719 0 018.637 3.04 14.117 14.117 0 00-4.2 6.753h1.145a13.224 13.224 0 013.513-5.664 13.224 13.224 0 013.513 5.664h1.162a14.106 14.106 0 00-4.205-6.713 13.733 13.733 0 11-.118 21.209 14.111 14.111 0 004.417-7.162h-1.119a13.221 13.221 0 01-3.65 6.131 13.221 13.221 0 01-3.646-6.131h-1.066a14.106 14.106 0 004.369 7.068 13.695 13.695 0 11-8.752-24.195zm17.2 9.654c-1.65 0-3.255 1.443-3.255 4.151 0 1.8.866 2.981 2.572 2.981a6.542 6.542 0 001.25-.2l.255-1.568a3.409 3.409 0 01-1.182.355c-1.014 0-1.42-.78-1.42-1.618 0-1.7.873-2.635 1.844-2.635a2.539 2.539 0 011.314.412l.232-1.525a5.076 5.076 0 00-1.61-.353zm13.871.132h-1.435l-.307 1.889a1.9 1.9 0 00-1.382-.732c-1.312 0-2.4 1.557-2.4 3.35 0 1.156.581 2.291 1.774 2.291a1.8 1.8 0 001.333-.589l-.062.5h1.393zm-41.1.019-1.14 6.731h1.377l.871-5.075.129 5.075h.986l1.838-5.075-.815 5.075h1.463l1.129-6.731h-2.265l-1.409 4.129-.073-4.129h-2.088zm14.392.436c-.032.032-.833 4.654-.833 5.218a1.05 1.05 0 001.124 1.2 3.5 3.5 0 001-.172l.053-.014.177-1.2c-.1 0-.239.041-.363.041-.49 0-.546-.261-.514-.455l.4-2.455h.747l.182-1.331h-.7l.143-.828h-1.412zm16.651.677a4.743 4.743 0 00-1.7.317l-.2 1.236a4.335 4.335 0 011.529-.253c.522 0 .9.061.9.494a.948.948 0 01-.046.361s-.412-.035-.6-.035c-1.212 0-2.486.532-2.486 2.131a1.347 1.347 0 001.354 1.548 1.812 1.812 0 001.435-.66l-.046.548h1.234l.554-3.958a1.669 1.669 0 00-1.925-1.732zm-23.154.006a4.778 4.778 0 00-1.705.317l-.2 1.236a4.359 4.359 0 011.533-.253c.524 0 .908.061.908.494a.948.948 0 01-.046.361s-.414-.035-.605-.035c-1.217 0-2.5.53-2.5 2.127a1.349 1.349 0 001.358 1.548 1.824 1.824 0 001.444-.659l-.046.548h1.239l.554-3.954a1.674 1.674 0 00-1.933-1.732zm4.377 0c-1.037 0-2.089.419-2.089 1.847 0 1.619 1.753 1.455 1.753 2.137 0 .455-.489.492-.866.492a4.576 4.576 0 01-1.244-.215l-.188 1.236a4.406 4.406 0 001.573.174c.315 0 2.119.08 2.119-1.8 0-1.756-1.669-1.408-1.669-2.113 0-.352.271-.462.769-.462.2 0 .959.062.959.062l.175-1.248a6.417 6.417 0 00-1.291-.111zm6.478 0c-1.439 0-2.506 1.549-2.506 3.3a2.245 2.245 0 002.475 2.5 3.666 3.666 0 001.516-.237l.252-1.377a4.479 4.479 0 01-1.521.35c-1.538 0-1.268-1.145-1.268-1.145h2.911a10.24 10.24 0 00.188-1.3 1.918 1.918 0 00-2.041-2.089zm5.215.059c-.648 0-1.131.873-1.131.873l.129-.8h-1.344l-.9 5.529h1.489c.422-2.361.5-4.277 1.5-3.927a5.4 5.4 0 01.54-1.653 1.515 1.515 0 00-.279-.019zm12.062 0c-.648 0-1.131.873-1.131.873l.129-.8h-1.344l-.9 5.529h1.487c.422-2.361.5-4.277 1.506-3.927a5.4 5.4 0 01.54-1.653 1.515 1.515 0 00-.279-.019zm-17.281 1.189c.818 0 .669.924.669 1h-1.61c0-.1.153-1 .943-1zm19.46.107c.521 0 .788.352.788 1.178 0 .75-.379 1.753-1.162 1.753-.521 0-.764-.43-.764-1.1 0-1.1.5-1.83 1.139-1.83zm-7.153 1.881a.832.832 0 01.291.03s-.006 0 .014 0c.027.247-.148 1.4-1 1.4a.524.524 0 01-.549-.554c0-.4.209-.881 1.242-.881zm-23.154 0a.88.88 0 01.307.033c.027.247-.15 1.4-1 1.4a.525.525 0 01-.554-.551c0-.4.21-.881 1.247-.881z" fill="url(#a)"/>
</svg>
