<svg width="41.596" height="33" version="1.1" viewBox="0 0 41.596 33" xmlns="http://www.w3.org/2000/svg">
 <defs>
  <linearGradient id="a" x1=".87" x2="0" y1=".5" y2=".5">
   <stop stop-color="#b73eea" offset="0"/>
   <stop stop-color="#6e5be4" offset=".499"/>
   <stop stop-color="#5e52cd" offset="1"/>
  </linearGradient>
 </defs>
 <path transform="translate(0 -2.999)" d="m41.6 6.861a10.643 10.643 0 01-1.557 2.119 11.343 11.343 0 01-2.805 2.252q.047.353.069.662a23.015 23.015 0 01-1.785 9.2 24.511 24.511 0 01-10.132 11.99c-4.9 2.675-10.6 3.244-15.86 2.759a18.75 18.75 0 01-9.53-3.509 18.4 18.4 0 0012.706-3.488c-3.9.094-6.732-2.59-8.068-5.695a5.694 5.694 0 001.808.088 17.625 17.625 0 002.041-.265 9.508 9.508 0 01-5.8-4.282 8.866 8.866 0 01-.974-4.061 8.448 8.448 0 003.849 1.1 9.409 9.409 0 01-3.779-5.85 10.383 10.383 0 011.046-5.273 29.074 29.074 0 009.9 7.063 21.4 21.4 0 007.771 1.546 9.469 9.469 0 011.04-6.269 8.961 8.961 0 015.36-3.708 8.151 8.151 0 017.93 2.34 14.562 14.562 0 005.518-1.943 8.04 8.04 0 01-3.8 4.679 25.022 25.022 0 005.047-1.456z" fill="url(#a)"/>
</svg>
